<?xml version="1.0" encoding="UTF-8"?>
<svg xmlns="http://www.w3.org/2000/svg" viewBox="0 0 648.01 685.71">
  <defs>
    <style>
      .cls-1 {
        fill: #a8a7d6;
      }
    </style>
  </defs>
  <g id="Layer_1" data-name="Layer 1" focusable="false">
    <path class="cls-1" d="M0,340.92c.09-15.84,5.59-29.16,16.51-39.96L304.65,16.06C316.15,5.27,329.53-.09,344.79,0c14.96.08,28.14,5.59,39.52,16.51l32.82,33.2c11.09,11.21,16.59,24.59,16.5,40.15-.09,15.55-5.74,28.87-16.95,39.96l-129.68,128.23,309.84,1.75c15.26.09,27.62,5.66,37.1,16.71,9.47,11.06,14.17,24.36,14.08,39.91l-.32,56.34c-.09,15.55-4.93,28.8-14.53,39.75-9.6,10.95-22.03,16.38-37.28,16.29l-309.84-1.75,128.22,130.12c11.09,10.63,16.59,23.86,16.5,39.71-.09,15.84-5.74,29.02-16.95,39.52l-33.2,32.82c-11.21,11.09-24.45,16.59-39.7,16.5-15.55-.09-28.87-5.74-39.96-16.95L16.06,380.62C5.26,370.29-.09,357.05,0,340.92Z"/>
  </g>
</svg>