<?xml version="1.0" encoding="UTF-8"?>
<svg xmlns="http://www.w3.org/2000/svg" viewBox="0 0 647.86 685.71">
  <defs>
    <style>
      .cls-1 {
        fill: #a8a7d6;
      }
    </style>
  </defs>
  <g id="Layer_1" data-name="Layer 1" focusable="false">
    <path class="cls-1" d="M647.86,342.86c0,15.84-5.43,29.2-16.28,40.05l-286.52,286.52c-11.44,10.86-24.79,16.28-40.05,16.28s-28.17-5.43-39.61-16.28l-33.01-33.01c-11.15-11.15-16.72-24.5-16.72-40.05s5.57-28.9,16.72-40.05l128.96-128.96H51.49c-15.26,0-27.65-5.5-37.19-16.5-9.54-11-14.3-24.28-14.3-39.83v-56.34c0-15.55,4.77-28.83,14.3-39.83,9.54-11,21.93-16.5,37.19-16.5h309.85l-128.96-129.4c-11.15-10.56-16.72-23.77-16.72-39.61s5.57-29.05,16.72-39.61l33.01-33.01c11.15-11.15,24.35-16.72,39.61-16.72s28.9,5.57,40.05,16.72l286.52,286.52c10.86,10.27,16.28,23.47,16.28,39.61Z"/>
  </g>
</svg>