<?xml version="1.0" encoding="UTF-8"?>
<svg id="Bunny" xmlns="http://www.w3.org/2000/svg" viewBox="0 0 35.36 58.81">
  <defs>
    <style>
      .cls-1 {
        fill: none;
      }

      .cls-1, .cls-2 {
        stroke: #231f20;
      }

      .cls-1, .cls-2, .cls-3 {
        stroke-miterlimit: 10;
      }

      .cls-1, .cls-3 {
        stroke-width: .5px;
      }

      .cls-2 {
        fill: #9b8579;
      }

      .cls-4 {
        fill: #a9a8d4;
      }

      .cls-3 {
        fill: #c2b59b;
        stroke: #9b8579;
      }
    </style>
  </defs>
  <path class="cls-2" d="M25.27,37.38C37.9,21.05,36.18,2.68,30.78.64c-2.85-1.07-9.44,11.99-15.4,31.39"/>
  <path class="cls-3" d="M23.06,33.96c9.52-12.34,10.86-26.13,7.95-27.63-1.54-.79-7.09,9.06-13.07,23.67"/>
  <path class="cls-2" d="M10.73,37.47C-.96,20.52,1.48,2.28,6.85.54c2.83-.92,8.74,12.45,13.77,32.11"/>
  <path class="cls-3" d="M12.56,33.84C3.48,21.17,2.62,7.34,5.58,5.94c1.56-.74,6.76,9.31,12.23,24.11"/>
  <ellipse class="cls-2" cx="17.64" cy="42.75" rx="17.14" ry="15.56"/>
  <path class="cls-1" d="M15.39,55.24c.43-.9,1.07-1.85,2.48-2.89"/>
  <path class="cls-1" d="M20.34,55.1c-.75-1.32-1.55-2.19-2.39-2.61"/>
  <path class="cls-1" d="M17.57,47.41c.05,1.65.09,3.3.14,4.94"/>
  <path class="cls-1" d="M20.14,45.48c.21,1.04-1.13,1.92-2.55,1.92s-2.68-.85-2.45-1.88"/>
  <path class="cls-4" d="M11.44,36.18c4.56-.09,4.7,6.47.13,6.57s-4.7-6.47-.13-6.57Z"/>
  <path class="cls-4" d="M23.54,36.18c4.56-.09,4.7,6.47.13,6.57-4.56.09-4.7-6.47-.13-6.57Z"/>
</svg>